<?xml version="1.0" encoding="UTF-8" standalone="no"?>
<svg width="30px" height="30px" viewBox="0 0 30 30" version="1.1" xmlns="http://www.w3.org/2000/svg" xmlns:xlink="http://www.w3.org/1999/xlink">
    <!-- Generator: Sketch 42 (36781) - http://www.bohemiancoding.com/sketch -->
    <title>twitter-icon</title>
    <desc>Created with Sketch.</desc>
    <defs></defs>
    <g id="Page-1" stroke="none" stroke-width="1" fill="none" fill-rule="evenodd">
        <g id="twitter-icon" fill="#4A4A4A">
            <path d="M26,8.08314791 C25.1909257,8.43544258 24.3214034,8.66519998 23.4084825,8.77701524 C24.3415528,8.23172436 25.0529801,7.3632414 25.3970692,6.33392827 C24.5275469,6.83939454 23.5572777,7.20700637 22.5327603,7.40459773 C21.7097365,6.54224164 20.5379738,6.00001419 19.2406651,6.00001419 C16.7483444,5.99388732 14.7256587,7.97286436 14.7241088,10.4205465 C14.7241088,10.7621191 14.7659574,11.1006284 14.8388051,11.4253522 C11.0863745,11.2354194 7.77103001,9.47394601 5.55150063,6.79650649 C5.16091306,7.44595406 4.93462026,8.2072169 4.93462026,9.01443122 C4.93152036,10.5492106 5.72974496,11.8986524 6.94025645,12.6951447 C6.19318022,12.672169 5.50190221,12.4684507 4.89277159,12.1406635 L4.89277159,12.1942736 C4.88967169,14.3340808 6.44117233,16.1277202 8.50725659,16.527498 C8.12751867,16.6362499 7.72608144,16.6867965 7.31689446,16.6867965 C7.02860364,16.6867965 6.74496266,16.6607573 6.47217134,16.608679 C7.03790334,18.3701524 8.70255037,19.6430083 10.6756376,19.6828329 C9.13033676,20.8683811 7.18514865,21.5714387 5.07566577,21.5683753 C4.71297731,21.5653119 4.35183881,21.5438678 4,21.5086384 C5.99168663,22.7631138 8.36466112,23.4983374 10.9065802,23.5029326 C19.2081161,23.5121229 23.7510216,16.7832946 23.7587713,10.9413299 C23.7603213,10.746802 23.7510216,10.5568692 23.7448218,10.3669364 C24.6267437,9.74046459 25.3939693,8.96541631 26,8.08314791" id="Fill-4"></path>
        </g>
    </g>
</svg>