<?xml version="1.0" encoding="UTF-8" standalone="no"?>
<svg width="30px" height="30px" viewBox="0 0 30 30" version="1.1" xmlns="http://www.w3.org/2000/svg" xmlns:xlink="http://www.w3.org/1999/xlink">
    <!-- Generator: Sketch 42 (36781) - http://www.bohemiancoding.com/sketch -->
    <title>behance-icon</title>
    <desc>Created with Sketch.</desc>
    <defs></defs>
    <g id="Page-1" stroke="none" stroke-width="1" fill="none" fill-rule="evenodd">
        <g id="behance-icon" fill="#4A4A4A">
            <g id="Group-6" transform="translate(2.000000, 6.000000)">
                <path d="M10.3491954,8.07170791 C10.3491954,8.07170791 12.7758621,7.89598377 12.7758621,5.08144422 C12.7758621,2.26985801 10.79,0.898028398 8.27367816,0.898028398 L3.51149425,0.898028398 L0,0.896551724 L0,16.612787 L8.27367816,16.612787 C8.27367816,16.612787 13.3272414,16.7693144 13.3272414,11.9745558 C13.3272414,11.9745558 13.5468966,8.07170791 10.3491954,8.07170791 L10.3491954,8.07170791 Z M3.64597701,3.68894118 L8.27367816,3.68894118 C8.27367816,3.68894118 9.40034483,3.68894118 9.40034483,5.32361866 C9.40034483,6.96124949 8.7383908,7.19604057 7.98827586,7.19604057 L3.64597701,7.19604057 L3.64597701,3.68894118 L3.64597701,3.68894118 Z M8.06149425,13.8189209 L3.64597701,13.8189209 L3.64597701,9.62073834 L8.27367816,9.62073834 C8.27367816,9.62073834 9.95022989,9.59711156 9.95022989,11.7781582 C9.95022989,13.5959432 8.72643678,13.8041542 8.06149425,13.8189209 L8.06149425,13.8189209 Z" id="Fill-10"></path>
                <g id="Fill-11-+-Fill-12" transform="translate(13.448276, 0.000000)">
                    <path d="M6.48505747,3.60287221 C0.367586207,3.60287221 0.373563218,9.64098986 0.373563218,9.64098986 C0.373563218,9.64098986 -0.0433333333,15.6466207 6.48505747,15.6466207 C6.48505747,15.6466207 11.9256322,15.9552454 11.9256322,11.4676349 L9.1254023,11.4676349 C9.1254023,11.4676349 9.21954023,13.1569493 6.5762069,13.1569493 C6.5762069,13.1569493 3.77896552,13.3430101 3.77896552,10.4221501 L12.0167816,10.4221501 C12.0167816,10.4221501 12.9178161,3.60287221 6.48505747,3.60287221 L6.48505747,3.60287221 Z M8.97149425,8.32675051 L3.74758621,8.32675051 C3.74758621,8.32675051 4.08827586,5.90205274 6.54632184,5.90205274 C9.00287356,5.90205274 8.97149425,8.32675051 8.97149425,8.32675051 L8.97149425,8.32675051 Z" id="Fill-11"></path>
                    <polygon id="Fill-12" points="3.06321839 0.529914807 9.62448276 0.529914807 9.62448276 2.46583367 3.06321839 2.46583367"></polygon>
                </g>
            </g>
        </g>
    </g>
</svg>