<?xml version="1.0" encoding="UTF-8" standalone="no"?>
<svg width="22px" height="22px" viewBox="0 0 22 22" version="1.1" xmlns="http://www.w3.org/2000/svg" xmlns:xlink="http://www.w3.org/1999/xlink">
    <!-- Generator: Sketch 47.1 (45422) - http://www.bohemiancoding.com/sketch -->
    <title>github</title>
    <desc>Created with Sketch.</desc>
    <defs></defs>
    <g id="Page-1" stroke="none" stroke-width="1" fill="none" fill-rule="evenodd">
        <g id="github" fill="#2BA600">
            <path d="M11.2017024,3 C6.67283994,3 3,6.6723364 3,11.2027094 C3,14.8267058 5.35003345,17.9008335 8.6094649,18.9854643 C9.01985214,19.0609957 9.1694043,18.8077138 9.1694043,18.5901834 C9.1694043,18.3958159 9.16235471,17.8796847 9.15832636,17.1953703 C6.87677471,17.6908562 6.39538795,16.0956332 6.39538795,16.0956332 C6.02226287,15.1479659 5.48447934,14.8956911 5.48447934,14.8956911 C4.73973979,14.387113 5.54087611,14.3971839 5.54087611,14.3971839 C6.36416831,14.4550913 6.79721497,15.242632 6.79721497,15.242632 C7.52886241,16.4959496 8.71722302,16.1339024 9.18451058,15.9239251 C9.25903489,15.3941983 9.47102634,15.0326547 9.70517366,14.8277128 C7.88385997,14.6207568 5.96888735,13.9168042 5.96888735,10.7736911 C5.96888735,9.87839233 6.28863692,9.1457378 6.81332834,8.57270629 C6.72873317,8.36524672 6.44725284,7.53087658 6.89389516,6.40193401 C6.89389516,6.40193401 7.58223793,6.18138234 9.1492626,7.2428502 C9.80336447,7.06056777 10.5053029,6.96993009 11.2027094,6.9664053 C11.8996124,6.96993009 12.6010473,7.06056777 13.2561563,7.2428502 C14.8221739,6.18138234 15.5095096,6.40193401 15.5095096,6.40193401 C15.957159,7.53087658 15.6756786,8.36524672 15.591587,8.57270629 C16.1172855,9.1457378 16.4345174,9.87839233 16.4345174,10.7736911 C16.4345174,13.9248609 14.5165235,14.6182391 12.6896708,14.8211668 C12.9837397,15.0744487 13.2460854,15.5749701 13.2460854,16.3403549 C13.2460854,17.4365672 13.2360146,18.3212916 13.2360146,18.5901834 C13.2360146,18.809728 13.3840561,19.0650241 13.7999823,18.9849608 C17.0568961,17.8978123 19.4049153,14.8256987 19.4049153,11.2027094 C19.4049153,6.6723364 15.7320754,3 11.2017024,3" id="Fill-3"></path>
        </g>
    </g>
</svg>