<?xml version="1.0" encoding="UTF-8" standalone="no"?>
<svg width="22px" height="22px" viewBox="0 0 22 22" version="1.1" xmlns="http://www.w3.org/2000/svg" xmlns:xlink="http://www.w3.org/1999/xlink">
    <!-- Generator: Sketch 47.1 (45422) - http://www.bohemiancoding.com/sketch -->
    <title>linkedin</title>
    <desc>Created with Sketch.</desc>
    <defs></defs>
    <g id="Page-1" stroke="none" stroke-width="1" fill="none" fill-rule="evenodd">
        <g id="linkedin" fill="#2BA600">
            <g id="Group-7" transform="translate(3.000000, 3.000000)">
                <path d="M12.1583,4.62000095 C10.4258,4.61891389 9.6514,5.55378448 9.2147,6.21254212 L9.2147,6.24406683 L9.1927,6.24406683 C9.2015,6.23210918 9.2081,6.22341271 9.2147,6.21254212 L9.2158,4.84393506 L5.9521,4.83958683 C5.9928,5.74293271 5.94,14.4948433 5.94,14.4948433 L9.2048,14.5013657 L9.2103,9.10737977 C9.2114,8.81713506 9.2323,8.53123859 9.3203,8.32469742 C9.5568,7.7496433 10.0947,7.15067389 10.9967,7.15176095 C12.1792,7.15176095 12.6511,8.03988801 12.6489,9.33783624 L12.6423,14.5046268 L15.9071,14.5089751 L15.9148,8.97149742 C15.9181,6.00600095 14.3055,4.62217506 12.1583,4.62000095" id="Fill-6"></path>
                <g id="Fill-7-+-Fill-8">
                    <path d="M2.1813,0.0835482353 C1.0648,0.0824611765 0.3344,0.803181176 0.3333,1.75109647 C0.3322,2.67727059 1.0384,3.42081882 2.1329,3.42408 L2.156,3.42408 C3.2934,3.42516706 4.0062,2.68379294 4.0062,1.75653176 C3.9864,0.807529412 3.2978,0.0835482353 2.1813,0.0835482353" id="Fill-7"></path>
                    <polyline id="Fill-8" points="0.5071 14.3946776 3.7741 14.3990259 3.7873 4.74268235 0.5203 4.73833412 0.5071 14.3946776"></polyline>
                </g>
            </g>
        </g>
    </g>
</svg>