<?xml version="1.0" encoding="UTF-8" standalone="no"?>
<svg width="40px" height="40px" viewBox="0 0 40 40" version="1.1" xmlns="http://www.w3.org/2000/svg" xmlns:xlink="http://www.w3.org/1999/xlink">
    <!-- Generator: Sketch 47.1 (45422) - http://www.bohemiancoding.com/sketch -->
    <title>behance-green</title>
    <desc>Created with Sketch.</desc>
    <defs></defs>
    <g id="Page-1" stroke="none" stroke-width="1" fill="none" fill-rule="evenodd">
        <g id="behance-green">
            <g id="Group-16" transform="translate(7.000000, 7.000000)">
                <path d="M26.83,13.415 C26.83,20.823 20.824,26.829 13.415,26.829 C6.006,26.829 0,20.823 0,13.415 C0,6.006 6.006,0 13.415,0 C20.824,0 26.83,6.006 26.83,13.415" id="Fill-9" fill="#2BA600"></path>
                <path d="M11.926,12.859 C11.926,12.859 13.55,12.74 13.55,10.834 C13.55,8.93 12.221,8.001 10.537,8.001 L7.35,8.001 L5,8 L5,18.643 L10.537,18.643 C10.537,18.643 13.919,18.749 13.919,15.502 C13.919,15.502 14.066,12.859 11.926,12.859 L11.926,12.859 Z M7.44,9.891 L10.537,9.891 C10.537,9.891 11.291,9.891 11.291,10.998 C11.291,12.107 10.848,12.266 10.346,12.266 L7.44,12.266 L7.44,9.891 L7.44,9.891 Z M10.395,16.751 L7.44,16.751 L7.44,13.908 L10.537,13.908 C10.537,13.908 11.659,13.892 11.659,15.369 C11.659,16.6 10.84,16.741 10.395,16.751 L10.395,16.751 Z" id="Fill-10" fill="#FFFFFF"></path>
                <g id="Fill-11-+-Fill-12" transform="translate(14.000000, 7.000000)" fill="#FFFFFF">
                    <path d="M4.34,3.047 C0.246,3.047 0.25,7.136 0.25,7.136 C0.25,7.136 -0.029,11.203 4.34,11.203 C4.34,11.203 7.981,11.412 7.981,8.373 L6.107,8.373 C6.107,8.373 6.17,9.517 4.401,9.517 C4.401,9.517 2.529,9.643 2.529,7.665 L8.042,7.665 C8.042,7.665 8.645,3.047 4.34,3.047 L4.34,3.047 Z M6.004,6.246 L2.508,6.246 C2.508,6.246 2.736,4.604 4.381,4.604 C6.025,4.604 6.004,6.246 6.004,6.246 L6.004,6.246 Z" id="Fill-11"></path>
                    <polygon id="Fill-12" points="2.05 0.966 6.441 0.966 6.441 2.277 2.05 2.277"></polygon>
                </g>
            </g>
        </g>
    </g>
</svg>