<?xml version="1.0" encoding="UTF-8" standalone="no"?>
<svg width="22px" height="22px" viewBox="0 0 22 22" version="1.1" xmlns="http://www.w3.org/2000/svg" xmlns:xlink="http://www.w3.org/1999/xlink">
    <!-- Generator: Sketch 47.1 (45422) - http://www.bohemiancoding.com/sketch -->
    <title>behance</title>
    <desc>Created with Sketch.</desc>
    <defs></defs>
    <g id="Page-1" stroke="none" stroke-width="1" fill="none" fill-rule="evenodd">
        <g id="behance" fill="#2BA600">
            <g id="Group-6" transform="translate(2.000000, 5.000000)">
                <path d="M7.64248276,6.05378093 C7.64248276,6.05378093 9.43448276,5.92198783 9.43448276,3.81108316 C9.43448276,1.70239351 7.968,0.673521298 6.1097931,0.673521298 L2.59310345,0.673521298 L0,0.672413793 L0,12.4595903 L6.1097931,12.4595903 C6.1097931,12.4595903 9.84165517,12.5769858 9.84165517,8.98091684 C9.84165517,8.98091684 10.0038621,6.05378093 7.64248276,6.05378093 L7.64248276,6.05378093 Z M2.69241379,2.76670588 L6.1097931,2.76670588 C6.1097931,2.76670588 6.9417931,2.76670588 6.9417931,3.992714 C6.9417931,5.22093712 6.45296552,5.39703043 5.89903448,5.39703043 L2.69241379,5.39703043 L2.69241379,2.76670588 L2.69241379,2.76670588 Z M5.95310345,10.3641907 L2.69241379,10.3641907 L2.69241379,7.21555375 L6.1097931,7.21555375 C6.1097931,7.21555375 7.34786207,7.19783367 7.34786207,8.83361866 C7.34786207,10.1969574 6.44413793,10.3531156 5.95310345,10.3641907 L5.95310345,10.3641907 Z" id="Fill-10"></path>
                <g id="Fill-11-+-Fill-12" transform="translate(9.931034, 0.000000)">
                    <path d="M4.78896552,2.70215416 C0.271448276,2.70215416 0.275862069,7.23074239 0.275862069,7.23074239 C0.275862069,7.23074239 -0.032,11.7349655 4.78896552,11.7349655 C4.78896552,11.7349655 8.80662069,11.9664341 8.80662069,8.60072617 L6.73875862,8.60072617 C6.73875862,8.60072617 6.80827586,9.86771197 4.85627586,9.86771197 C4.85627586,9.86771197 2.79062069,10.0072576 2.79062069,7.81661258 L8.87393103,7.81661258 C8.87393103,7.81661258 9.53931034,2.70215416 4.78896552,2.70215416 L4.78896552,2.70215416 Z M6.62510345,6.24506288 L2.76744828,6.24506288 C2.76744828,6.24506288 3.01903448,4.42653955 4.8342069,4.42653955 C6.64827586,4.42653955 6.62510345,6.24506288 6.62510345,6.24506288 L6.62510345,6.24506288 Z" id="Fill-11"></path>
                    <polygon id="Fill-12" points="2.26206897 0.397436105 7.10731034 0.397436105 7.10731034 1.84937525 2.26206897 1.84937525"></polygon>
                </g>
            </g>
        </g>
    </g>
</svg>