<?xml version="1.0" encoding="UTF-8" standalone="no"?>
<svg width="40px" height="40px" viewBox="0 0 40 40" version="1.1" xmlns="http://www.w3.org/2000/svg" xmlns:xlink="http://www.w3.org/1999/xlink">
    <!-- Generator: Sketch 47.1 (45422) - http://www.bohemiancoding.com/sketch -->
    <title>dribbble-green</title>
    <desc>Created with Sketch.</desc>
    <defs></defs>
    <g id="Page-1" stroke="none" stroke-width="1" fill="none" fill-rule="evenodd">
        <g id="dribbble-green">
            <g id="Group-11" transform="translate(6.000000, 7.000000)">
                <path d="M26.831,13.415 C26.831,20.823 20.825,26.829 13.416,26.829 C6.007,26.829 0,20.823 0,13.415 C0,6.006 6.007,0 13.416,0 C20.825,0 26.831,6.006 26.831,13.415" id="Fill-1" fill="#2BA600"></path>
                <path d="M13.0293291,11.6529114 C12.0870253,9.98716456 11.0807468,8.58260759 10.878,8.30362025 C9.25818987,9.07588608 8.04531646,10.5667848 7.65641772,12.3612025 L7.71462025,12.3612025 C8.25575949,12.3612025 10.5011266,12.3169494 13.0293291,11.6529114 Z" id="Fill-1" fill="#FFFFFF"></path>
                <path d="M17.2776329,9.19229114 C16.2422532,8.28389873 14.8867595,7.73241772 13.4042785,7.73241772 C12.947557,7.73241772 12.5040633,7.78508861 12.0776456,7.88465823 C12.3162278,8.20765823 13.3225063,9.5973038 14.2402785,11.277 C16.2254177,10.5263797 17.1140886,9.41596203 17.2776329,9.19229114 Z" id="Fill-2" fill="#FFFFFF"></path>
                <path d="M15.1046582,13.0403924 C15.1441013,13.1344304 15.1835443,13.2282278 15.2210633,13.3213038 C15.6768228,13.2659873 16.1306582,13.2433797 16.5616456,13.2433797 C17.8995823,13.2433797 19.0184177,13.4528608 19.2824937,13.5064937 C19.2598861,12.1536456 18.7769494,10.9097468 17.9832785,9.92607595 C17.7783671,10.1918354 16.7853165,11.3691139 14.7270633,12.2164177 C14.8593418,12.4879494 14.9863291,12.7633291 15.1046582,13.0403924 Z" id="Fill-3" fill="#FFFFFF"></path>
                <path d="M13.8061646,13.6238608 C13.8711013,13.6031772 13.9367595,13.5834557 14.0026582,13.5646962 C13.8617215,13.2508354 13.7114051,12.9360127 13.5526709,12.626 C10.9426962,13.4011519 8.40896203,13.4612785 7.67998734,13.4612785 C7.61240506,13.4612785 7.56165823,13.4612785 7.52582278,13.4603165 C7.52486076,13.5081772 7.52293671,13.5572405 7.52293671,13.6051013 C7.52389873,15.096962 8.08307595,16.4591899 9.00373418,17.4962532 C9.2516962,17.0857089 10.8676582,14.5726582 13.8061646,13.6238608 Z" id="Fill-4" fill="#FFFFFF"></path>
                <path d="M13.4042785,4.19240506 C8.20982278,4.19240506 4,8.40318987 4,13.5966835 C4,18.7899367 8.20982278,22.9997595 13.4042785,22.9997595 C18.5975316,22.9997595 22.8073544,18.7899367 22.8073544,13.5966835 C22.8073544,8.40318987 18.5975316,4.19240506 13.4042785,4.19240506 Z M13.4042785,20.5477975 C9.56555696,20.5477975 6.4435443,17.4296329 6.4435443,13.5966835 C6.4435443,9.76349367 9.56555696,6.64532911 13.4042785,6.64436709 C17.242038,6.64532911 20.3638101,9.76349367 20.3638101,13.5966835 C20.3638101,17.4296329 17.242038,20.5477975 13.4042785,20.5477975 Z" id="Fill-5" fill="#FFFFFF"></path>
                <path d="M15.6073165,14.3189241 C16.3382152,16.3360506 16.6556835,17.9904937 16.7336076,18.4424051 C18.0217595,17.5556582 18.9395316,16.1698608 19.2045696,14.5671266 C18.9818608,14.4993038 18.0198354,14.2296962 16.7910886,14.2296962 C16.4171013,14.2296962 16.0178608,14.2561519 15.6073165,14.3189241 Z" id="Fill-6" fill="#FFFFFF"></path>
                <path d="M14.4254684,14.6094557 C11.2038861,15.7311772 9.98548101,17.9257975 9.81736709,18.2555316 C10.8111392,19.0210633 12.0540759,19.4777848 13.4042785,19.4777848 C14.2082911,19.4777848 14.9759873,19.3152025 15.6748987,19.0220253 C15.5808608,18.4753544 15.2388608,16.710038 14.431962,14.6075316 C14.4290759,14.6084937 14.4271519,14.6094557 14.4254684,14.6094557 Z" id="Fill-7" fill="#FFFFFF"></path>
            </g>
        </g>
    </g>
</svg>