<?xml version="1.0" encoding="UTF-8" standalone="no"?>
<svg width="40px" height="40px" viewBox="0 0 40 40" version="1.1" xmlns="http://www.w3.org/2000/svg" xmlns:xlink="http://www.w3.org/1999/xlink">
    <!-- Generator: Sketch 47.1 (45422) - http://www.bohemiancoding.com/sketch -->
    <title>email-green</title>
    <desc>Created with Sketch.</desc>
    <defs></defs>
    <g id="Page-1" stroke="none" stroke-width="1" fill="none" fill-rule="evenodd">
        <g id="email-green">
            <g id="Group-10" transform="translate(7.000000, 7.000000)">
                <path d="M13.415,26.83 C6.007,26.83 0,20.824 0,13.416 C0,6.006 6.007,0 13.415,0 C20.824,0 26.83,6.006 26.83,13.416 C26.83,20.824 20.824,26.83 13.415,26.83 Z" id="Fill-13" fill="#2BA600"></path>
                <path d="M20.3500004,11.9241893 L20.3500004,8.65349414 C20.3500004,8.29235264 20.0576477,8 19.6975811,8 L6.65241931,8 C6.29235264,8 6,8.29235264 6,8.65349414 L6,18.4365593 C6,18.796626 6.29235264,19.0889786 6.65241931,19.0889786 L19.6975811,19.0889786 C20.0576477,19.0889786 20.3500004,18.796626 20.3500004,18.4365593 L20.3500004,11.9284886 L20.3500004,11.9241893 L20.3500004,11.9241893 Z M19.0451618,9.30591345 L19.0451618,11.4727624 L13.1755376,13.821257 L7.30483862,11.4727624 L7.30483862,9.30591345 L19.0451618,9.30591345 L19.0451618,9.30591345 Z M7.30483862,17.7852149 L7.30483862,12.8786347 L12.932627,15.1282453 C13.0100144,15.16049 13.092776,15.1755376 13.1755376,15.1755376 C13.2561495,15.1755376 13.339986,15.16049 13.4173734,15.1282453 L19.0451618,12.8786347 L19.0451618,17.7852149 L7.30483862,17.7852149 L7.30483862,17.7852149 Z" id="Fill-14" fill="#FFFFFF"></path>
            </g>
        </g>
    </g>
</svg>