<?xml version="1.0" encoding="UTF-8" standalone="no"?>
<svg width="40px" height="40px" viewBox="0 0 40 40" version="1.1" xmlns="http://www.w3.org/2000/svg" xmlns:xlink="http://www.w3.org/1999/xlink">
    <!-- Generator: Sketch 47.1 (45422) - http://www.bohemiancoding.com/sketch -->
    <title>linkedin-green</title>
    <desc>Created with Sketch.</desc>
    <defs></defs>
    <g id="Page-1" stroke="none" stroke-width="1" fill="none" fill-rule="evenodd">
        <g id="linkedin-green">
            <g id="Group-12" transform="translate(7.000000, 7.000000)">
                <path d="M26.83,13.415 C26.83,20.823 20.824,26.829 13.415,26.829 C6.006,26.829 0,20.823 0,13.415 C0,6.006 6.006,0 13.415,0 C20.824,0 26.83,6.006 26.83,13.415" id="Fill-2" fill="#2BA600"></path>
                <g id="Group" transform="translate(6.000000, 5.000000)" fill="#FFFFFF">
                    <path d="M8.977,6.46500087 L8.977,6.49400087 C8.965,6.48300087 8.971,6.47500087 8.977,6.46500087 L8.978,5.20600087 L6.011,5.20200087 C6.048,6.03300087 6,14.0840009 6,14.0840009 L8.968,14.0900009 L8.973,9.12800087 C8.974,8.86100087 8.993,8.59800087 9.073,8.40800087 C9.288,7.87900087 9.777,7.32800087 10.597,7.32900087 C11.672,7.32900087 12.101,8.14600087 12.099,9.34000087 L12.093,14.0930009 L15.061,14.0970009 L15.068,9.00300087 C15.071,6.27500087 13.605,5.00200087 11.653,5.00000087 C10.078,4.99900087 9.374,5.85900087 8.977,6.46500087 Z" id="Fill-6"></path>
                    <g id="Fill-7-+-Fill-8">
                        <path d="M2.583,0.684 C1.568,0.683 0.904,1.346 0.903,2.218 C0.902,3.07 1.544,3.754 2.539,3.757 L2.56,3.757 C3.594,3.758 4.242,3.076 4.242,2.223 C4.224,1.35 3.598,0.684 2.583,0.684" id="Fill-7"></path>
                        <polyline id="Fill-8" points="1.061 13.849 4.031 13.853 4.043 4.97 1.073 4.966 1.061 13.849"></polyline>
                    </g>
                </g>
            </g>
        </g>
    </g>
</svg>