<?xml version="1.0" encoding="UTF-8" standalone="no"?>
<svg width="22px" height="22px" viewBox="0 0 22 22" version="1.1" xmlns="http://www.w3.org/2000/svg" xmlns:xlink="http://www.w3.org/1999/xlink">
    <!-- Generator: Sketch 47.1 (45422) - http://www.bohemiancoding.com/sketch -->
    <title>mail</title>
    <desc>Created with Sketch.</desc>
    <defs></defs>
    <g id="Page-1" stroke="none" stroke-width="1" fill="none" fill-rule="evenodd">
        <g id="mail" fill="#2BA600">
            <path d="M19.4188095,9.24658331 L19.4188095,5.70718232 C19.4188095,5.31637104 19.084309,5 18.6723322,5 L3.74647722,5 C3.3345005,5 3,5.31637104 3,5.70718232 L3,16.2939808 C3,16.683629 3.3345005,17 3.74647722,17 L18.6723322,17 C19.084309,17 19.4188095,16.683629 19.4188095,16.2939808 L19.4188095,9.25123582 L19.4188095,9.24658331 L19.4188095,9.24658331 Z M17.925855,6.41320151 L17.925855,8.75806921 L11.2100196,11.2995057 L4.49295444,8.75806921 L4.49295444,6.41320151 L17.925855,6.41320151 L17.925855,6.41320151 Z M4.49295444,15.5891247 L4.49295444,10.2794417 L10.9320891,12.7138703 C11.0206333,12.7487642 11.1153265,12.765048 11.2100196,12.765048 C11.3022532,12.765048 11.3981761,12.7487642 11.4867204,12.7138703 L17.925855,10.2794417 L17.925855,15.5891247 L4.49295444,15.5891247 L4.49295444,15.5891247 Z" id="Fill-14"></path>
        </g>
    </g>
</svg>