<?xml version="1.0" encoding="UTF-8" standalone="no"?>
<svg width="40px" height="40px" viewBox="0 0 40 40" version="1.1" xmlns="http://www.w3.org/2000/svg" xmlns:xlink="http://www.w3.org/1999/xlink">
    <!-- Generator: Sketch 47.1 (45422) - http://www.bohemiancoding.com/sketch -->
    <title>twitter-green</title>
    <desc>Created with Sketch.</desc>
    <defs></defs>
    <g id="Page-1" stroke="none" stroke-width="1" fill="none" fill-rule="evenodd">
        <g id="twitter-green">
            <g id="Group-14" transform="translate(7.000000, 7.000000)">
                <path d="M26.829,13.415 C26.829,20.823 20.823,26.829 13.415,26.829 C6.006,26.829 0,20.823 0,13.415 C0,6.006 6.006,0 13.415,0 C20.823,0 26.829,6.006 26.829,13.415" id="Fill-3" fill="#2BA600"></path>
                <path d="M21.1899996,9.45544175 C20.6313706,9.70158095 20.031005,9.86210652 19.4006746,9.94022897 C20.0449172,9.55924828 20.5361254,8.95246163 20.7737033,8.23330707 C20.1733376,8.58646333 19.5034109,8.84330424 18.7960283,8.98135623 C18.2277677,8.37885026 17.4187189,8.00000991 16.5229862,8.00000991 C14.8021521,7.99572923 13.4055796,9.37838947 13.4045094,11.0885219 C13.4045094,11.3271699 13.433404,11.5636776 13.4837021,11.7905537 C10.8928194,11.6578526 8.60372474,10.4271565 7.07124064,8.55649855 C6.80155768,9.01025083 6.64531279,9.54212555 6.64531279,10.1061054 C6.64317245,11.1784162 7.19431024,12.1212364 8.03011337,12.677725 C7.51429121,12.6616725 7.03699518,12.5193398 6.61641819,12.2903233 L6.61641819,12.3277793 C6.61427785,13.8228074 7.68551848,15.075977 9.11205571,15.3552915 C8.84986395,15.4312736 8.5726898,15.4665892 8.2901648,15.4665892 C8.09111309,15.4665892 7.89527189,15.4483963 7.70692189,15.4120106 C8.09753411,16.6427066 9.24689719,17.5320182 10.6092242,17.5598427 C9.54226424,18.3881546 8.19920031,18.8793629 6.7426983,18.8772225 C6.49227841,18.8750822 6.2429287,18.8600998 6,18.8354859 C7.37516905,19.7119555 9.01360003,20.2256373 10.7686796,20.2288478 C16.5005126,20.2352688 19.6371822,15.53401 19.6425331,11.4523798 C19.6436033,11.3164682 19.6371822,11.183767 19.6329016,11.0510659 C20.2418285,10.6133662 20.7715629,10.0718599 21.1899996,9.45544175" id="Fill-4" fill="#FFFFFF"></path>
            </g>
        </g>
    </g>
</svg>