<?xml version="1.0" encoding="UTF-8" standalone="no"?>
<svg width="22px" height="22px" viewBox="0 0 22 22" version="1.1" xmlns="http://www.w3.org/2000/svg" xmlns:xlink="http://www.w3.org/1999/xlink">
    <!-- Generator: Sketch 47.1 (45422) - http://www.bohemiancoding.com/sketch -->
    <title>twitter</title>
    <desc>Created with Sketch.</desc>
    <defs></defs>
    <g id="Page-1" stroke="none" stroke-width="1" fill="none" fill-rule="evenodd">
        <g id="twitter" fill="#2BA600">
            <path d="M19.3401102,6.54722119 C18.7391846,6.80888182 18.0933623,6.97953005 17.4153064,7.06257886 C18.1083279,6.65757372 18.6367279,6.01252339 18.892294,5.2480193 C18.2464717,5.62344542 17.5258215,5.89648259 16.7648793,6.04324008 C16.153593,5.40274037 15.283287,5.00001054 14.3197339,5.00001054 C12.4686069,4.99545992 10.966293,6.46531004 10.9651418,8.28328256 C10.9651418,8.5369796 10.9962241,8.78840134 11.0503304,9.02958417 C8.26327911,8.88851497 5.80086572,7.58021184 4.1523496,5.59159108 C3.86224761,6.07395676 3.69417264,6.63937124 3.69417264,7.23891537 C3.69187024,8.37884557 4.28473742,9.38111954 5.18382337,9.97270008 C4.62894574,9.95563526 4.11551125,9.80432716 3.66309028,9.56086901 L3.66309028,9.60068693 C3.66078788,11.1899908 4.81313749,12.5221847 6.34768496,12.8191126 C6.06564135,12.8998861 5.76748097,12.9374287 5.46356459,12.9374287 C5.24944168,12.9374287 5.03877238,12.9180886 4.83616146,12.8794083 C5.25634887,14.1877115 6.49273596,15.1331027 7.95821153,15.1626817 C6.81046672,16.0432266 5.36571272,16.5654102 3.79893169,16.5631349 C3.52955127,16.5608596 3.26132204,16.5449324 3,16.5187663 C4.47928995,17.4505057 6.24177471,17.9965801 8.12974009,17.999993 C14.2955587,18.0068189 17.6697213,13.009101 17.6754773,8.67008523 C17.6766285,8.52560306 17.6697213,8.38453385 17.6651165,8.24346464 C18.3201484,7.77816379 18.8899916,7.20251041 19.3401102,6.54722119" id="Fill-4"></path>
        </g>
    </g>
</svg>