<?xml version="1.0" encoding="utf-8"?>
<!-- Generator: Adobe Illustrator 16.0.0, SVG Export Plug-In . SVG Version: 6.00 Build 0)  -->
<!DOCTYPE svg PUBLIC "-//W3C//DTD SVG 1.1//EN" "http://www.w3.org/Graphics/SVG/1.1/DTD/svg11.dtd">
<svg version="1.1" id="Layer_1" xmlns="http://www.w3.org/2000/svg" xmlns:xlink="http://www.w3.org/1999/xlink" x="0px" y="0px"
	 width="30px" height="30px" viewBox="0 0 30 30" enable-background="new 0 0 30 30" xml:space="preserve">
<g>
	<path fill="#FFFFFF" d="M14.176,14.565c0,0,1.624-0.119,1.624-2.025c0-1.904-1.329-2.833-3.013-2.833H9.691H9.6L7.25,9.706v10.643
		H9.6h0.091h3.097c0,0,3.382,0.106,3.382-3.142C16.17,17.207,16.316,14.565,14.176,14.565z M9.691,11.597h2.698h0.398
		c0,0,0.754,0,0.754,1.107c0,1.109-0.443,1.268-0.945,1.268H9.691V11.597z M12.645,18.457H9.691v-2.843h3.097
		c0,0,1.122-0.016,1.122,1.46C13.91,18.306,13.09,18.446,12.645,18.457z"/>
	<g>
		<path fill="#FFFFFF" d="M20.678,12.415c-4.094,0-4.09,4.089-4.09,4.089s-0.279,4.066,4.09,4.066c0,0,3.643,0.209,3.643-2.83
			h-1.875c0,0,0.062,1.145-1.705,1.145c0,0-1.873,0.126-1.873-1.852h5.514C24.381,17.033,24.984,12.415,20.678,12.415z
			 M22.342,15.614h-3.496c0,0,0.229-1.642,1.873-1.642S22.342,15.614,22.342,15.614z"/>
		<rect x="18.389" y="10.334" fill="#FFFFFF" width="4.391" height="1.311"/>
	</g>
</g>
</svg>
