<?xml version="1.0" encoding="UTF-8" standalone="no"?>
<svg width="30px" height="30px" viewBox="0 0 30 30" version="1.1" xmlns="http://www.w3.org/2000/svg" xmlns:xlink="http://www.w3.org/1999/xlink">
    <!-- Generator: Sketch 42 (36781) - http://www.bohemiancoding.com/sketch -->
    <title>dribbble-icon</title>
    <desc>Created with Sketch.</desc>
    <defs></defs>
    <g id="Page-1" stroke="none" stroke-width="1" fill="none" fill-rule="evenodd">
        <g id="dribbble-icon" fill="#4A4A4A">
            <g id="Group" transform="translate(4.000000, 4.000000)">
                <path d="M9.97978481,8.45848101 C8.93829114,6.61739241 7.82608861,5.06498734 7.602,4.75663291 C5.81168354,5.61018987 4.47113924,7.25802532 4.0413038,9.24132911 L4.10563291,9.24132911 C4.70373418,9.24132911 7.1854557,9.19241772 9.97978481,8.45848101 Z" id="Fill-1"></path>
                <path d="M14.6752785,5.7388481 C13.5309114,4.73483544 12.0327342,4.1253038 10.3942025,4.1253038 C9.88940506,4.1253038 9.39922785,4.18351899 8.92792405,4.29356962 C9.19162025,4.65056962 10.3038228,6.18649367 11.3182025,8.043 C13.5123038,7.21336709 14.494519,5.98606329 14.6752785,5.7388481 Z" id="Fill-2"></path>
                <path d="M12.2735696,9.99201266 C12.3171646,10.0959494 12.3607595,10.1996203 12.4022278,10.3024937 C12.905962,10.2413544 13.4075696,10.2163671 13.8839241,10.2163671 C15.3626962,10.2163671 16.5993038,10.4478987 16.8911772,10.5071772 C16.8661899,9.01192405 16.3324177,7.63708861 15.4552025,6.54987342 C15.2287215,6.84360759 14.1311392,8.14481013 11.8562278,9.0813038 C12.0024304,9.38141772 12.1427848,9.68578481 12.2735696,9.99201266 Z" id="Fill-3"></path>
                <path d="M10.8383924,10.6368987 C10.9101646,10.614038 10.9827342,10.5922405 11.0555696,10.5715063 C10.8997975,10.2246076 10.7336582,9.87664557 10.5582152,9.534 C7.67350633,10.3907468 4.87306329,10.4572025 4.06735443,10.4572025 C3.99265823,10.4572025 3.93656962,10.4572025 3.89696203,10.4561392 C3.89589873,10.509038 3.89377215,10.5632658 3.89377215,10.6161646 C3.89483544,12.2650633 4.51287342,13.7706835 5.53044304,14.9169114 C5.80450633,14.4631519 7.59056962,11.6855696 10.8383924,10.6368987 Z" id="Fill-4"></path>
                <path d="M10.3942025,0.212658228 C4.65296203,0.212658228 0,4.86668354 0,10.6068608 C0,16.3467722 4.65296203,20.9997342 10.3942025,20.9997342 C16.1341139,20.9997342 20.7870759,16.3467722 20.7870759,10.6068608 C20.7870759,4.86668354 16.1341139,0.212658228 10.3942025,0.212658228 Z M10.3942025,18.2896709 C6.15140506,18.2896709 2.70075949,14.8432785 2.70075949,10.6068608 C2.70075949,6.37017722 6.15140506,2.92378481 10.3942025,2.92272152 C14.6359367,2.92378481 18.0863165,6.37017722 18.0863165,10.6068608 C18.0863165,14.8432785 14.6359367,18.2896709 10.3942025,18.2896709 Z" id="Fill-5"></path>
                <path d="M12.8291392,11.4051266 C13.6369747,13.6345823 13.9878608,15.4631772 14.0739873,15.9626582 C15.4977342,14.9825696 16.5121139,13.4508987 16.8050506,11.6794557 C16.5588987,11.6044937 15.4956076,11.3065063 14.137519,11.3065063 C13.7241646,11.3065063 13.2828987,11.3357468 12.8291392,11.4051266 Z" id="Fill-6"></path>
                <path d="M11.5228861,11.7262405 C7.96218987,12.966038 6.61553165,15.3916709 6.42972152,15.7561139 C7.52810127,16.6022278 8.90187342,17.1070253 10.3942025,17.1070253 C11.2828481,17.1070253 12.1313544,16.9273291 12.9038354,16.6032911 C12.7998987,15.9990759 12.4218987,14.0479367 11.5300633,11.7241139 C11.5268734,11.7251772 11.5247468,11.7262405 11.5228861,11.7262405 Z" id="Fill-7"></path>
            </g>
        </g>
    </g>
</svg>