<?xml version="1.0" encoding="UTF-8" standalone="no"?>
<svg width="30px" height="30px" viewBox="0 0 30 30" version="1.1" xmlns="http://www.w3.org/2000/svg" xmlns:xlink="http://www.w3.org/1999/xlink">
    <!-- Generator: Sketch 42 (36781) - http://www.bohemiancoding.com/sketch -->
    <title>dribbble</title>
    <desc>Created with Sketch.</desc>
    <defs></defs>
    <g id="Page-1" stroke="none" stroke-width="1" fill="none" fill-rule="evenodd">
        <g id="dribbble">
            <g id="tumblr" transform="translate(1.000000, 1.000000)" fill="#000000">
                <g id="Layer_1">
                    <ellipse id="Oval" cx="14.025" cy="14.026" rx="13.415" ry="13.415"></ellipse>
                </g>
            </g>
            <g id="Group" transform="translate(7.000000, 7.000000)" fill="#FFFFFF">
                <path d="M7.60364557,6.44455696 C6.81012658,5.04182278 5.96273418,3.85903797 5.792,3.62410127 C4.42794937,4.27443038 3.40658228,5.52992405 3.07908861,7.04101266 L3.12810127,7.04101266 C3.58379747,7.04101266 5.47463291,7.00374684 7.60364557,6.44455696 Z" id="Fill-1"></path>
                <path d="M11.1811646,4.3724557 C10.3092658,3.60749367 9.16779747,3.14308861 7.91939241,3.14308861 C7.53478481,3.14308861 7.16131646,3.18744304 6.80222785,3.27129114 C7.00313924,3.54329114 7.85053165,4.71351899 8.62339241,6.128 C10.2950886,5.49589873 11.043443,4.56081013 11.1811646,4.3724557 Z" id="Fill-2"></path>
                <path d="M9.35129114,7.61296203 C9.38450633,7.6921519 9.41772152,7.77113924 9.44931646,7.84951899 C9.83311392,7.80293671 10.2152911,7.78389873 10.5782278,7.78389873 C11.7049114,7.78389873 12.6470886,7.9603038 12.8694684,8.00546835 C12.8504304,6.86622785 12.4437468,5.81873418 11.7753924,4.99037975 C11.6028354,5.21417722 10.7665823,6.20556962 9.03331646,6.91908861 C9.14470886,7.14774684 9.25164557,7.37964557 9.35129114,7.61296203 Z" id="Fill-3"></path>
                <path d="M8.25782278,8.1043038 C8.31250633,8.08688608 8.36779747,8.07027848 8.42329114,8.05448101 C8.30460759,7.79017722 8.17802532,7.52506329 8.04435443,7.264 C5.84648101,7.91675949 3.71281013,7.96739241 3.09893671,7.96739241 C3.04202532,7.96739241 2.99929114,7.96739241 2.96911392,7.96658228 C2.9683038,8.00688608 2.96668354,8.04820253 2.96668354,8.08850633 C2.96749367,9.34481013 3.43837975,10.4919494 4.21367089,11.3652658 C4.42248101,11.0195443 5.78329114,8.90329114 8.25782278,8.1043038 Z" id="Fill-4"></path>
                <path d="M7.91939241,0.162025316 C3.54511392,0.162025316 0,3.70794937 0,8.08141772 C0,12.4546835 3.54511392,15.9997975 7.91939241,15.9997975 C12.2926582,15.9997975 15.8377722,12.4546835 15.8377722,8.08141772 C15.8377722,3.70794937 12.2926582,0.162025316 7.91939241,0.162025316 Z M7.91939241,13.9349873 C4.68678481,13.9349873 2.05772152,11.3091646 2.05772152,8.08141772 C2.05772152,4.85346835 4.68678481,2.22764557 7.91939241,2.22683544 C11.1511899,2.22764557 13.7800506,4.85346835 13.7800506,8.08141772 C13.7800506,11.3091646 11.1511899,13.9349873 7.91939241,13.9349873 Z" id="Fill-5"></path>
                <path d="M9.77458228,8.68962025 C10.3900759,10.3882532 10.6574177,11.7814684 10.723038,12.1620253 C11.8077975,11.4152911 12.5806582,10.2483038 12.8038481,8.89863291 C12.6163038,8.84151899 11.8061772,8.61448101 10.771443,8.61448101 C10.4565063,8.61448101 10.1203038,8.63675949 9.77458228,8.68962025 Z" id="Fill-6"></path>
                <path d="M8.77934177,8.93427848 C6.06643038,9.87888608 5.04040506,11.7269873 4.89883544,12.0046582 C5.7356962,12.6493165 6.78237975,13.0339241 7.91939241,13.0339241 C8.5964557,13.0339241 9.24293671,12.8970127 9.83149367,12.6501266 C9.7523038,12.1897722 9.4643038,10.7031899 8.78481013,8.93265823 C8.78237975,8.93346835 8.78075949,8.93427848 8.77934177,8.93427848 Z" id="Fill-7"></path>
            </g>
        </g>
    </g>
</svg>