<?xml version="1.0" encoding="utf-8"?>
<!-- Generator: Adobe Illustrator 16.0.0, SVG Export Plug-In . SVG Version: 6.00 Build 0)  -->
<!DOCTYPE svg PUBLIC "-//W3C//DTD SVG 1.1//EN" "http://www.w3.org/Graphics/SVG/1.1/DTD/svg11.dtd">
<svg version="1.1" id="Layer_1" xmlns="http://www.w3.org/2000/svg" xmlns:xlink="http://www.w3.org/1999/xlink" x="0px" y="0px"
	 width="30px" height="30px" viewBox="0 0 30 30" enable-background="new 0 0 30 30" xml:space="preserve">
<g>
	<path fill="#FFFFFF" d="M18.666,13.138c-1.576-0.001-2.279,0.859-2.676,1.465v0.029h-0.021c0.008-0.011,0.015-0.02,0.021-0.029
		l0.001-1.259l-2.967-0.004c0.036,0.832-0.012,8.883-0.012,8.883l2.968,0.006l0.006-4.963c0.001-0.267,0.02-0.529,0.1-0.72
		c0.215-0.529,0.703-1.081,1.523-1.079c1.074,0,1.504,0.816,1.502,2.011l-0.006,4.753l2.969,0.004l0.006-5.094
		C22.084,14.413,20.617,13.14,18.666,13.138z"/>
	<path fill="#FFFFFF" d="M9.921,9.051c-1.015-0.001-1.679,0.662-1.68,1.535c-0.001,0.852,0.641,1.536,1.636,1.539h0.021
		c1.033,0.001,1.682-0.681,1.682-1.534C11.562,9.717,10.936,9.051,9.921,9.051z"/>
	<rect x="8.406" y="13.335" fill="#FFFFFF" width="2.97" height="8.883"/>
</g>
</svg>
