<?xml version="1.0" encoding="UTF-8" standalone="no"?>
<svg width="30px" height="30px" viewBox="0 0 30 30" version="1.1" xmlns="http://www.w3.org/2000/svg" xmlns:xlink="http://www.w3.org/1999/xlink">
    <!-- Generator: Sketch 42 (36781) - http://www.bohemiancoding.com/sketch -->
    <title>linkedin-icon</title>
    <desc>Created with Sketch.</desc>
    <defs></defs>
    <g id="Page-1" stroke="none" stroke-width="1" fill="none" fill-rule="evenodd">
        <g id="linkedin-icon" fill="#4A4A4A">
            <g id="Group-7" transform="translate(3.000000, 4.000000)">
                <path d="M16.9479333,6.44000132 C14.5329333,6.43848603 13.4534667,7.74163897 12.8447333,8.6599072 L12.8447333,8.70385073 L12.8140667,8.70385073 C12.8263333,8.6871825 12.8355333,8.67506014 12.8447333,8.6599072 L12.8462667,6.75215191 L8.29686667,6.74609073 C8.3536,8.00530014 8.28,20.2049331 8.28,20.2049331 L12.8309333,20.2140248 L12.8386,12.6951354 C12.8401333,12.2905519 12.8692667,11.8920296 12.9919333,11.6041237 C13.3216,10.8025331 14.0714,9.96760603 15.3287333,9.96912132 C16.9770667,9.96912132 17.6348667,11.2071166 17.6318,13.0163778 L17.6226,20.2185707 L22.1735333,20.2246319 L22.1842667,12.5057237 C22.1888667,8.37200132 19.941,6.44303191 16.9479333,6.44000132" id="Fill-6"></path>
                <g id="Fill-7-+-Fill-8">
                    <path d="M3.0406,0.116461176 C1.48426667,0.114945882 0.466133333,1.11958588 0.4646,2.44092235 C0.463066667,3.73195294 1.44746667,4.76841412 2.97313333,4.77296 L3.00533333,4.77296 C4.5908,4.77447529 5.5844,3.74104471 5.5844,2.44849882 C5.5568,1.12564706 4.59693333,0.116461176 3.0406,0.116461176" id="Fill-7"></path>
                    <polyline id="Fill-8" points="0.706866667 20.0653082 5.26086667 20.0713694 5.27926667 6.61101176 0.725266667 6.60495059 0.706866667 20.0653082"></polyline>
                </g>
            </g>
        </g>
    </g>
</svg>