<?xml version="1.0" encoding="UTF-8" standalone="no"?>
<svg width="30px" height="30px" viewBox="0 0 30 30" version="1.1" xmlns="http://www.w3.org/2000/svg" xmlns:xlink="http://www.w3.org/1999/xlink">
    <!-- Generator: Sketch 42 (36781) - http://www.bohemiancoding.com/sketch -->
    <title>linkedin</title>
    <desc>Created with Sketch.</desc>
    <defs></defs>
    <g id="Page-1" stroke="none" stroke-width="1" fill="none" fill-rule="evenodd">
        <g id="linkedin">
            <g transform="translate(1.000000, 1.000000)" id="Layer_1">
                <g>
                    <ellipse id="Oval" fill="#000000" cx="13.751" cy="14.026" rx="13.415" ry="13.415"></ellipse>
                    <g id="Group" transform="translate(7.000000, 7.000000)" fill="#FFFFFF">
                        <path d="M10.666,4.138 C9.09,4.137 8.387,4.997 7.99,5.603 L7.99,5.632 L7.969,5.632 C7.977,5.621 7.985,5.612 7.99,5.603 L7.99,4.344 L5.024,4.34 C5.06,5.172 5.012,13.223 5.012,13.223 L7.98,13.229 L7.986,8.266 C7.986,7.999 8.006,7.737 8.086,7.546 C8.301,7.017 8.789,6.465 9.609,6.467 C10.683,6.467 11.113,7.283 11.111,8.478 L11.105,13.231 L14.074,13.235 L14.08,8.141 C14.084,5.413 12.617,4.14 10.666,4.138 L10.666,4.138 Z" id="Shape"></path>
                        <path d="M1.921,0.051 C0.907,0.05 0.243,0.713 0.242,1.586 C0.241,2.438 0.883,3.122 1.878,3.125 L1.899,3.125 C2.932,3.126 3.581,2.444 3.581,1.591 C3.562,0.717 2.936,0.051 1.921,0.051 L1.921,0.051 Z" id="Shape"></path>
                        <rect id="Rectangle-path" x="0.406" y="4.335" width="2.97" height="8.883"></rect>
                    </g>
                </g>
            </g>
        </g>
    </g>
</svg>