<?xml version="1.0" encoding="utf-8"?>
<!-- Generator: Adobe Illustrator 16.0.0, SVG Export Plug-In . SVG Version: 6.00 Build 0)  -->
<!DOCTYPE svg PUBLIC "-//W3C//DTD SVG 1.1//EN" "http://www.w3.org/Graphics/SVG/1.1/DTD/svg11.dtd">
<svg version="1.1" id="Layer_1" xmlns="http://www.w3.org/2000/svg" xmlns:xlink="http://www.w3.org/1999/xlink" x="0px" y="0px"
	 width="30px" height="30px" viewBox="0 0 30 30" enable-background="new 0 0 30 30" xml:space="preserve">
<path fill="#FFFFFF" d="M22.064,13.458v-3.043c0-0.336-0.271-0.608-0.605-0.608H9.321c-0.335,0-0.607,0.272-0.607,0.608v3.045v0.001
	v6.056c0,0.335,0.272,0.606,0.607,0.606h12.138c0.334,0,0.605-0.271,0.605-0.606v-6.056C22.064,13.461,22.064,13.46,22.064,13.458z
	 M20.852,11.021v2.016l-5.461,2.185l-5.462-2.185v-2.016H20.852z M9.928,18.91v-4.565l5.236,2.094
	c0.072,0.029,0.148,0.044,0.227,0.044c0.074,0,0.152-0.015,0.225-0.044l5.237-2.094v4.565H9.928z"/>
</svg>
