<?xml version="1.0" encoding="UTF-8" standalone="no"?>
<svg width="30px" height="30px" viewBox="0 0 30 30" version="1.1" xmlns="http://www.w3.org/2000/svg" xmlns:xlink="http://www.w3.org/1999/xlink">
    <!-- Generator: Sketch 42 (36781) - http://www.bohemiancoding.com/sketch -->
    <title>mail-icon</title>
    <desc>Created with Sketch.</desc>
    <defs></defs>
    <g id="Page-1" stroke="none" stroke-width="1" fill="none" fill-rule="evenodd">
        <g id="mail-icon" fill="#4A4A4A">
            <path d="M26.2516667,13.0134118 L26.2516667,8.00141176 C26.2516667,7.448 25.7983333,7 25.24,7 L5.01166667,7 C4.45333333,7 4,7.448 4,8.00141176 L4,22.9929412 C4,23.5447059 4.45333333,23.9927059 5.01166667,23.9927059 L25.24,23.9927059 C25.7983333,23.9927059 26.2516667,23.5447059 26.2516667,22.9929412 L26.2516667,13.02 L26.2516667,13.0134118 L26.2516667,13.0134118 Z M24.2283333,9.00117647 L24.2283333,12.3216471 L15.1266667,15.9204706 L6.02333333,12.3216471 L6.02333333,9.00117647 L24.2283333,9.00117647 L24.2283333,9.00117647 Z M6.02333333,21.9948235 L6.02333333,14.476 L14.75,17.9232941 C14.87,17.9727059 14.9983333,17.9957647 15.1266667,17.9957647 C15.2516667,17.9957647 15.3816667,17.9727059 15.5016667,17.9232941 L24.2283333,14.476 L24.2283333,21.9948235 L6.02333333,21.9948235 L6.02333333,21.9948235 Z" id="Fill-14"></path>
        </g>
    </g>
</svg>