<?xml version="1.0" encoding="utf-8"?>
<!-- Generator: Adobe Illustrator 16.0.0, SVG Export Plug-In . SVG Version: 6.00 Build 0)  -->
<!DOCTYPE svg PUBLIC "-//W3C//DTD SVG 1.1//EN" "http://www.w3.org/Graphics/SVG/1.1/DTD/svg11.dtd">
<svg version="1.1" id="Layer_1" xmlns="http://www.w3.org/2000/svg" xmlns:xlink="http://www.w3.org/1999/xlink" x="0px" y="0px"
	 width="30px" height="30px" viewBox="0 0 30 30" enable-background="new 0 0 30 30" xml:space="preserve">
<path fill="#FFFFFF" d="M15.414,8.083l-0.004,3.482l3.496,0.004l-0.004,2.686l-3.496-0.005L15.4,18.111
	c0,0.87-0.016,1.372,0.08,1.622c0.09,0.244,0.32,0.504,0.574,0.648c0.332,0.201,0.715,0.301,1.146,0.301
	c0.766,0.002,1.529-0.246,2.285-0.738l-0.002,2.371c-0.645,0.303-1.232,0.516-1.756,0.637c-0.525,0.119-1.092,0.18-1.699,0.18
	c-0.693-0.002-1.1-0.09-1.633-0.26c-0.528-0.176-0.983-0.426-1.357-0.744c-0.373-0.322-0.635-0.668-0.777-1.027
	c-0.146-0.363-0.217-0.891-0.216-1.574l0.007-5.281l-2.055-0.002L10,12.114c0.592-0.193,1.281-0.467,1.706-0.828
	c0.424-0.357,0.763-0.79,1.021-1.289c0.259-0.502,0.435-1.142,0.533-1.918L15.414,8.083z"/>
</svg>
