<?xml version="1.0" encoding="UTF-8" standalone="no"?>
<svg width="30px" height="30px" viewBox="0 0 30 30" version="1.1" xmlns="http://www.w3.org/2000/svg" xmlns:xlink="http://www.w3.org/1999/xlink" xmlns:sketch="http://www.bohemiancoding.com/sketch/ns">
    <!-- Generator: Sketch 3.5.1 (25234) - http://www.bohemiancoding.com/sketch -->
    <title>Artboard 27</title>
    <desc>Created with Sketch.</desc>
    <defs></defs>
    <g id="Page-1" stroke="none" stroke-width="1" fill="none" fill-rule="evenodd" sketch:type="MSPage">
        <g id="Artboard-27" sketch:type="MSArtboardGroup">
            <g id="tumblr" sketch:type="MSLayerGroup" transform="translate(1.000000, 1.000000)">
                <g id="Layer_1" sketch:type="MSShapeGroup">
                    <ellipse id="Oval" fill="#F49A07" cx="14.025" cy="14.026" rx="13.415" ry="13.415"></ellipse>
                    <path d="M14.658,6.757 L14.654,10.239 L18.15,10.243 L18.146,12.93 L14.65,12.925 L14.644,16.785 C14.644,17.656 14.628,18.158 14.724,18.408 C14.814,18.651 15.044,18.911 15.298,19.056 C15.63,19.257 16.013,19.357 16.444,19.357 C17.21,19.359 17.973,19.111 18.729,18.619 L18.727,20.99 C18.082,21.293 17.495,21.505 16.971,21.627 C16.446,21.746 15.879,21.807 15.272,21.807 C14.579,21.805 14.172,21.717 13.639,21.546 C13.111,21.371 12.656,21.121 12.282,20.803 C11.909,20.481 11.647,20.135 11.505,19.776 C11.359,19.413 11.288,18.885 11.289,18.201 L11.296,12.92 L9.241,12.918 L9.244,10.789 C9.836,10.596 10.525,10.322 10.95,9.961 C11.374,9.604 11.713,9.171 11.971,8.672 C12.23,8.17 12.406,7.53 12.504,6.754 L14.658,6.757 L14.658,6.757 Z" id="Shape" fill="#FFFFFF"></path>
                </g>
            </g>
        </g>
    </g>
</svg>