<?xml version="1.0" encoding="UTF-8" standalone="no"?>
<svg width="30px" height="30px" viewBox="0 0 30 30" version="1.1" xmlns="http://www.w3.org/2000/svg" xmlns:xlink="http://www.w3.org/1999/xlink" xmlns:sketch="http://www.bohemiancoding.com/sketch/ns">
    <!-- Generator: Sketch 3.5.1 (25234) - http://www.bohemiancoding.com/sketch -->
    <title>Artboard 27 Copy 4</title>
    <desc>Created with Sketch.</desc>
    <defs></defs>
    <g id="Page-1" stroke="none" stroke-width="1" fill="none" fill-rule="evenodd" sketch:type="MSPage">
        <g id="Artboard-27-Copy-4" sketch:type="MSArtboardGroup">
            <g id="twitter" sketch:type="MSLayerGroup" transform="translate(1.000000, 1.000000)">
                <g id="Layer_1" sketch:type="MSShapeGroup">
                    <circle id="Oval" fill="#F49A06" cx="14.14" cy="14.026" r="13.414"></circle>
                    <path d="M21.238,9.839 C20.715,10.068 20.154,10.219 19.566,10.292 C20.168,9.936 20.627,9.369 20.847,8.697 C20.286,9.027 19.661,9.267 18.999,9.396 C18.468,8.833 17.712,8.479 16.876,8.479 C15.267,8.476 13.962,9.768 13.961,11.365 C13.961,11.589 13.988,11.809 14.035,12.021 C11.614,11.897 9.474,10.747 8.043,8.999 C7.791,9.423 7.645,9.92 7.645,10.447 C7.644,11.449 8.16,12.33 8.94,12.85 C8.459,12.835 8.012,12.702 7.62,12.488 L7.62,12.523 C7.618,13.92 8.619,15.09 9.952,15.352 C9.707,15.422 9.448,15.456 9.183,15.456 C8.997,15.456 8.814,15.439 8.638,15.405 C9.003,16.555 10.077,17.387 11.35,17.413 C10.353,18.186 9.098,18.645 7.738,18.643 C7.504,18.641 7.27,18.627 7.044,18.604 C8.329,19.423 9.859,19.903 11.5,19.906 C16.856,19.913 19.788,15.52 19.792,11.705 C19.794,11.578 19.788,11.455 19.784,11.33 C20.352,10.92 20.846,10.415 21.238,9.839" id="Shape" fill="#FFFFFF"></path>
                </g>
            </g>
        </g>
    </g>
</svg>