<?xml version="1.0" encoding="utf-8"?>
<!-- Generator: Adobe Illustrator 16.0.0, SVG Export Plug-In . SVG Version: 6.00 Build 0)  -->
<!DOCTYPE svg PUBLIC "-//W3C//DTD SVG 1.1//EN" "http://www.w3.org/Graphics/SVG/1.1/DTD/svg11.dtd">
<svg version="1.1" id="Layer_1" xmlns="http://www.w3.org/2000/svg" xmlns:xlink="http://www.w3.org/1999/xlink" x="0px" y="0px"
	 width="30px" height="30px" viewBox="0 0 30 30" enable-background="new 0 0 30 30" xml:space="preserve">
<path fill="#FFFFFF" d="M22.238,10.839c-0.523,0.229-1.084,0.38-1.672,0.453c0.602-0.356,1.061-0.923,1.281-1.595
	c-0.561,0.33-1.186,0.57-1.848,0.699c-0.531-0.563-1.287-0.917-2.123-0.917c-1.609-0.003-2.914,1.289-2.915,2.886
	c0,0.224,0.027,0.444,0.074,0.656c-2.421-0.124-4.561-1.274-5.992-3.022c-0.252,0.424-0.398,0.921-0.398,1.448
	C8.644,12.449,9.16,13.33,9.94,13.85c-0.481-0.015-0.928-0.148-1.32-0.362v0.035c-0.002,1.397,0.999,2.567,2.332,2.829
	c-0.245,0.07-0.504,0.104-0.769,0.104c-0.186,0-0.369-0.017-0.545-0.051c0.365,1.15,1.439,1.982,2.712,2.008
	c-0.997,0.773-2.252,1.232-3.612,1.23c-0.234-0.002-0.468-0.016-0.694-0.039c1.285,0.819,2.815,1.299,4.456,1.302
	c5.356,0.007,8.288-4.386,8.292-8.201c0.002-0.127-0.004-0.25-0.008-0.375C21.352,11.92,21.846,11.415,22.238,10.839"/>
</svg>
